<?xml version="1.0" encoding="UTF-8"?>
<svg id="Layer_1" data-name="Layer 1" xmlns="http://www.w3.org/2000/svg" viewBox="0 0 1920 530">
  <defs>
    <style>
      .cls-1 {
        fill: #fff;
      }
    </style>
  </defs>
  <g>
    <path class="cls-1" d="M210.85,201.91L53.42,509.38c-1,1.94-3,3.17-5.18,3.17h0c-7.29,0-13.21-5.91-13.21-13.21h0S181.21,213.84,181.21,213.84c5.46-10.66,17.95-15.64,29.25-11.67h0s.4-.26.4-.26Z"/>
    <path class="cls-1" d="M348.2,129.68c-15.05-29.4-46.9-91.58-61.95-120.99-11.92,23.27-34.08,66.56-50.18,98.01-6.86,13.39-6.86,29.26,0,42.65,33.03,64.51,81.97,160.08,124.23,242.62,25.65,50.1-10.73,109.61-67.02,109.61h-135.5s101.76-198.75,101.76-198.75h0c-4.71-9.71-18.49-9.86-23.41-.25l-103.4,201.95c-1.87,3.66.78,8.01,4.9,8.01h160.87c67.23,0,110.69-71.08,80.04-130.91-42.57-83.12-92.05-179.74-118.95-232.27-6.86-13.4-6.86-29.27,0-42.67,11.09-21.66,26.65-52.04,26.65-52.04,33.23,64.88,197.87,386.45,234.46,457.89h1.7c7.97,0,14.44-6.46,14.44-14.44h0s-188.65-368.42-188.65-368.42Z"/>
  </g>
  <g>
    <path class="cls-1" d="M632.26,181.01h-4.7l-69.67,159.21h6.41l21.59-49.15h74.16l21.59,49.15h20.3l-69.67-159.21ZM588.66,284.88l34.2-78.65,34.41,78.65h-68.6Z"/>
    <polygon class="cls-1" points="883.37 181.01 889.57 181.01 889.57 340.23 883.37 340.23 765.19 189.13 765.19 340.23 758.99 340.23 758.99 181.01 784.42 181.01 883.37 307.53 883.37 181.01"/>
    <polygon class="cls-1" points="1088.32 181.01 1094.73 181.01 1025.06 340.23 1020.36 340.23 950.69 181.01 970.99 181.01 1029.55 315.01 1088.32 181.01"/>
    <path class="cls-1" d="M1188.12,181.01h-4.7l-69.67,159.21h6.41l21.59-49.15h74.16l21.59,49.15h20.3l-69.67-159.21ZM1144.52,284.88l34.2-78.65,34.41,78.65h-68.6Z"/>
    <path class="cls-1" d="M1390.94,263.08c6.41-.71,11.93-2.28,16.56-4.7,4.63-2.42,8.41-5.45,11.33-9.08,2.92-3.63,5.09-7.76,6.52-12.39,1.42-4.63,2.14-9.51,2.14-14.64,0-5.7-.86-11.04-2.56-16.03-1.71-4.99-4.38-9.33-8.01-13.04-3.63-3.7-8.3-6.66-14-8.87-5.7-2.21-12.54-3.31-20.52-3.31h-67.53v159.21h19.66v-76.51h32.91l52.15,76.51h23.72l-52.36-77.15ZM1334.51,257.52v-70.31h43.6c6.27,0,11.33.93,15.18,2.79,3.85,1.86,6.84,4.4,8.97,7.61,2.14,3.22,3.6,6.93,4.38,11.15.78,4.21,1.17,8.75,1.17,13.61s-.39,9.43-1.17,13.72c-.79,4.29-2.25,8-4.38,11.14-2.14,3.15-5.13,5.65-8.97,7.5-3.85,1.86-8.91,2.79-15.18,2.79h-43.6Z"/>
    <path class="cls-1" d="M1645.47,229.52c-4.13-9.69-9.76-18.13-16.88-25.32-7.13-7.19-15.46-12.86-25.01-16.99-9.55-4.13-19.74-6.2-30.56-6.2s-21.02,2.07-30.56,6.2c-9.55,4.14-17.88,9.8-25.01,16.99-7.12,7.2-12.75,15.64-16.88,25.32-4.14,9.69-6.2,20.02-6.2,30.99s2.06,21.3,6.2,30.99c4.13,9.69,9.76,18.13,16.88,25.33,7.12,7.2,15.46,12.9,25.01,17.1,9.54,4.21,19.73,6.31,30.56,6.31s21.01-2.1,30.56-6.31c9.54-4.2,17.88-9.9,25.01-17.1,7.12-7.19,12.75-15.63,16.88-25.33,4.13-9.69,6.2-20.01,6.2-30.99s-2.07-21.3-6.2-30.99ZM1628.48,287.69c-2.35,8.78-5.95,16.59-10.79,23.43-4.84,6.85-10.97,12.38-18.38,16.59-7.41,4.21-16.17,6.31-26.29,6.31s-18.88-2.1-26.29-6.31c-7.41-4.21-13.54-9.74-18.38-16.59-4.84-6.85-8.44-14.66-10.79-23.43-2.35-8.78-3.52-17.8-3.52-27.07s1.17-18.12,3.52-26.97c2.35-8.85,5.95-16.69,10.79-23.54,4.84-6.85,10.97-12.38,18.38-16.59,7.41-4.21,16.17-6.32,26.29-6.32s18.87,2.11,26.29,6.32c7.41,4.21,13.53,9.74,18.38,16.59,4.84,6.85,8.44,14.7,10.79,23.54,2.35,8.85,3.52,17.84,3.52,26.97s-1.17,18.3-3.52,27.07Z"/>
    <polygon class="cls-1" points="1836.95 181.01 1843.15 181.01 1843.15 340.23 1836.95 340.23 1718.77 189.13 1718.77 340.23 1712.57 340.23 1712.57 181.01 1738 181.01 1836.95 307.53 1836.95 181.01"/>
  </g>
</svg>